<svg xmlns="http://www.w3.org/2000/svg" width="1100" height="760" viewBox="0 0 1100 760" font-family="Helvetica, Arial, sans-serif">
  <rect width="1100" height="760" fill="#0f172a"/>
  <text x="550" y="30" fill="#f1f5f9" font-size="17" font-weight="bold" text-anchor="middle">Horizon Freight &amp; Logistics — Full Network (Capstone Project A)</text>

  <!-- OSPF banner -->
  <rect x="420" y="45" width="260" height="28" rx="14" fill="#1e293b" stroke="#a78bfa" stroke-width="2"/>
  <text x="550" y="64" fill="#a78bfa" font-size="12" font-weight="bold" text-anchor="middle">OSPF AREA 0 — ALL 3 ROUTERS</text>

  <!-- HQ -->
  <text x="180" y="95" fill="#64748b" font-size="13" font-weight="bold" text-anchor="middle">HEADQUARTERS</text>
  <rect x="30" y="105" width="170" height="95" rx="8" fill="#1e293b" stroke="#facc15" stroke-width="2.5"/>
  <text x="115" y="128" fill="#e2e8f0" font-size="13" font-weight="bold" text-anchor="middle">HQ-R1</text>
  <text x="115" y="144" fill="#94a3b8" font-size="8.5" text-anchor="middle">id 1.1.1.1</text>
  <text x="115" y="157" fill="#94a3b8" font-size="8.5" text-anchor="middle">Gi0/0.10 .20 .30</text>
  <text x="115" y="170" fill="#94a3b8" font-size="8.5" text-anchor="middle">Gi0/1 → BranchA</text>
  <text x="115" y="183" fill="#94a3b8" font-size="8.5" text-anchor="middle">Gi0/2 → BranchB</text>

  <rect x="10" y="230" width="150" height="70" rx="6" fill="#1e293b" stroke="#38bdf8" stroke-width="2.5"/>
  <text x="85" y="252" fill="#e2e8f0" font-size="12" font-weight="bold" text-anchor="middle">HQ-SW1</text>
  <text x="85" y="266" fill="#a78bfa" font-size="8.5" text-anchor="middle">ROOT BRIDGE</text>
  <text x="85" y="279" fill="#94a3b8" font-size="8.5" text-anchor="middle">Vlan99: .99.1</text>
  <line x1="115" y1="200" x2="90" y2="230" stroke="#facc15" stroke-width="2"/>

  <rect x="185" y="230" width="150" height="70" rx="6" fill="#1e293b" stroke="#38bdf8" stroke-width="2.5"/>
  <text x="260" y="252" fill="#e2e8f0" font-size="12" font-weight="bold" text-anchor="middle">HQ-SW2</text>
  <text x="260" y="266" fill="#94a3b8" font-size="8.5" text-anchor="middle">Vlan99: .99.2</text>
  <line x1="160" y1="265" x2="185" y2="265" stroke="#22c55e" stroke-width="4"/>

  <!-- HQ PCs -->
  <g><rect x="0" y="330" width="62" height="46" rx="5" fill="#1e293b" stroke="#f59e0b" stroke-width="1.5"/><text x="31" y="350" fill="#e2e8f0" font-size="8.5" text-anchor="middle">PC1 IT</text><text x="31" y="362" fill="#94a3b8" font-size="7.5" text-anchor="middle">10.2/29</text></g>
  <g><rect x="68" y="330" width="62" height="46" rx="5" fill="#1e293b" stroke="#f59e0b" stroke-width="1.5"/><text x="99" y="350" fill="#e2e8f0" font-size="8.5" text-anchor="middle">PC2 IT</text><text x="99" y="362" fill="#94a3b8" font-size="7.5" text-anchor="middle">10.3/29</text></g>
  <g><rect x="136" y="330" width="62" height="46" rx="5" fill="#1e293b" stroke="#22d3ee" stroke-width="1.5"/><text x="167" y="350" fill="#e2e8f0" font-size="8.5" text-anchor="middle">PC3 Fin</text><text x="167" y="362" fill="#94a3b8" font-size="7.5" text-anchor="middle">20.2/28</text></g>
  <g><rect x="204" y="330" width="62" height="46" rx="5" fill="#1e293b" stroke="#a3e635" stroke-width="1.5"/><text x="235" y="350" fill="#e2e8f0" font-size="8.5" text-anchor="middle">PC4 Ops</text><text x="235" y="362" fill="#94a3b8" font-size="7.5" text-anchor="middle">30.2/27</text></g>
  <g><rect x="272" y="330" width="62" height="46" rx="5" fill="#1e293b" stroke="#22d3ee" stroke-width="1.5"/><text x="303" y="350" fill="#e2e8f0" font-size="8.5" text-anchor="middle">PC5 Fin</text><text x="303" y="362" fill="#94a3b8" font-size="7.5" text-anchor="middle">20.3/28</text></g>
  <g><rect x="340" y="330" width="62" height="46" rx="5" fill="#1e293b" stroke="#a3e635" stroke-width="1.5"/><text x="371" y="350" fill="#e2e8f0" font-size="8.5" text-anchor="middle">PC6 Ops</text><text x="371" y="362" fill="#94a3b8" font-size="7.5" text-anchor="middle">30.3/27</text></g>
  <line x1="31" y1="330" x2="80" y2="300" stroke="#64748b" stroke-width="1"/>
  <line x1="99" y1="330" x2="90" y2="300" stroke="#64748b" stroke-width="1"/>
  <line x1="167" y1="330" x2="100" y2="300" stroke="#64748b" stroke-width="1"/>
  <line x1="235" y1="330" x2="110" y2="300" stroke="#64748b" stroke-width="1"/>
  <line x1="303" y1="330" x2="255" y2="300" stroke="#64748b" stroke-width="1"/>
  <line x1="371" y1="330" x2="265" y2="300" stroke="#64748b" stroke-width="1"/>

  <!-- BRANCH A -->
  <text x="620" y="95" fill="#64748b" font-size="13" font-weight="bold" text-anchor="middle">BRANCH A — HARGEISA</text>
  <rect x="550" y="105" width="170" height="80" rx="8" fill="#1e293b" stroke="#facc15" stroke-width="2.5"/>
  <text x="635" y="128" fill="#e2e8f0" font-size="13" font-weight="bold" text-anchor="middle">BRANCHA-R1</text>
  <text x="635" y="144" fill="#94a3b8" font-size="8.5" text-anchor="middle">id 2.2.2.2</text>
  <text x="635" y="157" fill="#94a3b8" font-size="8.5" text-anchor="middle">Gi0/0 → HQ</text>
  <text x="635" y="170" fill="#94a3b8" font-size="8.5" text-anchor="middle">Gi0/1.40 .50</text>

  <rect x="570" y="230" width="150" height="65" rx="6" fill="#1e293b" stroke="#38bdf8" stroke-width="2.5"/>
  <text x="645" y="252" fill="#e2e8f0" font-size="12" font-weight="bold" text-anchor="middle">BRANCHA-SW1</text>
  <text x="645" y="266" fill="#94a3b8" font-size="8.5" text-anchor="middle">Vlan99: .199.1</text>
  <line x1="635" y1="185" x2="645" y2="230" stroke="#facc15" stroke-width="2"/>

  <g><rect x="560" y="330" width="62" height="46" rx="5" fill="#1e293b" stroke="#fb923c" stroke-width="1.5"/><text x="591" y="350" fill="#e2e8f0" font-size="8.5" text-anchor="middle">PC7 Sales</text><text x="591" y="362" fill="#94a3b8" font-size="7.5" text-anchor="middle">40.2/28</text></g>
  <g><rect x="628" y="330" width="62" height="46" rx="5" fill="#1e293b" stroke="#fb923c" stroke-width="1.5"/><text x="659" y="350" fill="#e2e8f0" font-size="8.5" text-anchor="middle">PC8 Sales</text><text x="659" y="362" fill="#94a3b8" font-size="7.5" text-anchor="middle">40.3/28</text></g>
  <g><rect x="696" y="330" width="66" height="46" rx="5" fill="#1e293b" stroke="#c084fc" stroke-width="1.5"/><text x="729" y="350" fill="#e2e8f0" font-size="8.5" text-anchor="middle">PC9 Whse</text><text x="729" y="362" fill="#94a3b8" font-size="7.5" text-anchor="middle">50.2/29</text></g>
  <g><rect x="768" y="330" width="66" height="46" rx="5" fill="#1e293b" stroke="#c084fc" stroke-width="1.5"/><text x="801" y="350" fill="#e2e8f0" font-size="8.5" text-anchor="middle">PC10 Whse</text><text x="801" y="362" fill="#94a3b8" font-size="7.5" text-anchor="middle">50.3/29</text></g>
  <line x1="591" y1="330" x2="620" y2="295" stroke="#64748b" stroke-width="1"/>
  <line x1="659" y1="330" x2="640" y2="295" stroke="#64748b" stroke-width="1"/>
  <line x1="729" y1="330" x2="660" y2="295" stroke="#64748b" stroke-width="1"/>
  <line x1="801" y1="330" x2="670" y2="295" stroke="#64748b" stroke-width="1"/>

  <!-- BRANCH B -->
  <text x="990" y="95" fill="#64748b" font-size="13" font-weight="bold" text-anchor="middle">BRANCH B — BOSASO</text>
  <rect x="920" y="105" width="160" height="80" rx="8" fill="#1e293b" stroke="#facc15" stroke-width="2.5"/>
  <text x="1000" y="128" fill="#e2e8f0" font-size="13" font-weight="bold" text-anchor="middle">BRANCHB-R1</text>
  <text x="1000" y="144" fill="#94a3b8" font-size="8.5" text-anchor="middle">id 3.3.3.3</text>
  <text x="1000" y="157" fill="#94a3b8" font-size="8.5" text-anchor="middle">Gi0/0 → HQ</text>
  <text x="1000" y="170" fill="#94a3b8" font-size="8.5" text-anchor="middle">Gi0/1.60</text>

  <rect x="930" y="230" width="140" height="65" rx="6" fill="#1e293b" stroke="#38bdf8" stroke-width="2.5"/>
  <text x="1000" y="252" fill="#e2e8f0" font-size="12" font-weight="bold" text-anchor="middle">BRANCHB-SW1</text>
  <text x="1000" y="266" fill="#94a3b8" font-size="8.5" text-anchor="middle">Vlan99: .201.1</text>
  <line x1="1000" y1="185" x2="1000" y2="230" stroke="#facc15" stroke-width="2"/>

  <g><rect x="935" y="330" width="66" height="46" rx="5" fill="#1e293b" stroke="#f87171" stroke-width="1.5"/><text x="968" y="350" fill="#e2e8f0" font-size="8.5" text-anchor="middle">PC11 Supp</text><text x="968" y="362" fill="#94a3b8" font-size="7.5" text-anchor="middle">60.2/29</text></g>
  <g><rect x="1005" y="330" width="66" height="46" rx="5" fill="#1e293b" stroke="#f87171" stroke-width="1.5"/><text x="1038" y="350" fill="#e2e8f0" font-size="8.5" text-anchor="middle">PC12 Supp</text><text x="1038" y="362" fill="#94a3b8" font-size="7.5" text-anchor="middle">60.3/29</text></g>
  <line x1="968" y1="330" x2="990" y2="295" stroke="#64748b" stroke-width="1"/>
  <line x1="1038" y1="330" x2="1010" y2="295" stroke="#64748b" stroke-width="1"/>

  <!-- WAN links -->
  <line x1="200" y1="145" x2="550" y2="140" stroke="#22c55e" stroke-width="3"/>
  <text x="375" y="128" fill="#22c55e" font-size="11" font-weight="bold" text-anchor="middle">192.168.100.0/30</text>

  <line x1="720" y1="140" x2="920" y2="140" stroke="#22c55e" stroke-width="3"/>
  <text x="820" y="128" fill="#22c55e" font-size="11" font-weight="bold" text-anchor="middle">192.168.102.0/30</text>

  <!-- Legend -->
  <rect x="15" y="440" width="1070" height="300" rx="10" fill="#16283f" stroke="#334155" stroke-width="1"/>
  <text x="550" y="470" fill="#e2e8f0" font-size="14" font-weight="bold" text-anchor="middle">Full Addressing Plan</text>

  <text x="40" y="500" fill="#facc15" font-size="12" font-weight="bold">HEADQUARTERS</text>
  <text x="40" y="520" fill="#94a3b8" font-size="11">IT/Admin (VLAN 10): 192.168.10.0/29 — 4 users, buffer to 6</text>
  <text x="40" y="540" fill="#94a3b8" font-size="11">Finance (VLAN 20): 192.168.20.0/28 — 8 users</text>
  <text x="40" y="560" fill="#94a3b8" font-size="11">Operations (VLAN 30): 192.168.30.0/27 — 20 users</text>
  <text x="40" y="580" fill="#94a3b8" font-size="11">Management (VLAN 99): 192.168.99.0/30 — 2 switches</text>

  <text x="410" y="500" fill="#facc15" font-size="12" font-weight="bold">BRANCH A — HARGEISA</text>
  <text x="410" y="520" fill="#94a3b8" font-size="11">Sales (VLAN 40): 192.168.40.0/28 — 5 users, buffer to 10</text>
  <text x="410" y="540" fill="#94a3b8" font-size="11">Warehouse (VLAN 50): 192.168.50.0/29 — 3 users</text>
  <text x="410" y="560" fill="#94a3b8" font-size="11">Management (VLAN 99): 192.168.199.0/30 — 1 switch</text>

  <text x="750" y="500" fill="#facc15" font-size="12" font-weight="bold">BRANCH B — BOSASO</text>
  <text x="750" y="520" fill="#94a3b8" font-size="11">Support (VLAN 60): 192.168.60.0/29 — 6 users</text>
  <text x="750" y="540" fill="#94a3b8" font-size="11">Management (VLAN 99): 192.168.201.0/30 — 1 switch</text>

  <text x="40" y="620" fill="#facc15" font-size="12" font-weight="bold">WAN LINKS</text>
  <text x="40" y="640" fill="#94a3b8" font-size="11">HQ ↔ Branch A: 192.168.100.0/30 (redundancy not built — single link, business decision)</text>
  <text x="40" y="660" fill="#94a3b8" font-size="11">HQ ↔ Branch B: 192.168.102.0/30 (single link)</text>

  <text x="40" y="695" fill="#94a3b8" font-size="11">All management VLANs remain unrouted — same security boundary used since Lab 07</text>
  <text x="40" y="715" fill="#94a3b8" font-size="11">OSPF Area 0 runs across all 3 routers — dynamic routing discovers every network automatically</text>
</svg>
